<svg viewBox="0 0 83.98 81.76" xmlns="http://www.w3.org/2000/svg"><g transform="translate(-4448.46 -2975.83)"><g fill="#fff"><path d="m4463.85 2991h7.26c3.32 0 5.47 1.53 5.47 4.33a3.49 3.49 0 0 1 -2.31 3.59 3.87 3.87 0 0 1 3 4c0 3.05-2.24 4.85-6.4 4.85h-7v-16.77zm6.65 6.55c1.23 0 1.7-.57 1.7-1.5a1.39 1.39 0 0 0 -1.65-1.53h-2.36v3h2.31zm.37 6.67c1.45 0 1.95-.66 1.95-1.75s-.52-1.72-1.95-1.72h-2.68v3.47z"/><path d="m4480 2991h4.48v16.74h-4.48z"/><path d="m4497.46 2991h4.85l-5.56 7.26 6.23 9.48h-5.29l-4-6.08-1.4 1.72v4.36h-4.48v-16.74h4.48v7z"/><path d="m4505 2991h11.74v3.77h-7.26v2.76h6.06v3.57h-6.06v2.9h7.61v3.77h-12.09z"/></g><path d="m4458.87 3007.75a151.34 151.34 0 0 1 -5.86-23.15 149.61 149.61 0 0 1 74.88.06 153.07 153.07 0 0 1 -5.94 23.09h4.27a154.75 154.75 0 0 0 6-24.25l.28-1.78-1.73-.48a150.3 150.3 0 0 0 -40.29-5.41 147.26 147.26 0 0 0 -40.28 5.38l-1.68.5.26 1.74a152.85 152.85 0 0 0 5.88 24.3h4.27z" fill="#3498db"/><path d="m4511.9 3029.81c-5.28 8.87-12.32 17.43-21.56 23.08-9.24-5.66-16.26-14.21-21.51-23.08h-4.67c5.85 10.42 14 20.72 25.17 27.19l1 .59 1-.59c11.16-6.47 19.34-16.77 25.22-27.19h-4.67z" fill="#3498db"/></g></svg>